<?xml version="1.0" encoding="UTF-8"?>
<svg width="43px" height="85px" viewBox="0 0 43 85" version="1.1" xmlns="http://www.w3.org/2000/svg" xmlns:xlink="http://www.w3.org/1999/xlink">
    <!-- Generator: sketchtool 57.1 (101010) - https://sketch.com -->
    <title>7284845E-A26F-4DF3-AA31-D6B0DE5B8F6C@1x</title>
    <desc>Created with sketchtool.</desc>
    <g id="Page-1" stroke="none" stroke-width="1" fill="none" fill-rule="evenodd">
        <g id="UI-for-testing" transform="translate(-120.000000, -184.000000)">
            <path d="M120,184 C143.748244,184 163,203.027898 163,226.5 C163,249.972102 143.748244,269 120,269 L120,184 Z" id="Oval" fill-opacity="0.4" fill="#FFFFFF"></path>
            <path d="M126.003895,226 C125.96536,225.279411 126.212736,224.545571 126.746024,223.995099 L136.651856,213.770063 C137.646554,212.743312 139.259278,212.743312 140.253976,213.770063 C141.248675,214.796814 141.248675,216.461507 140.253976,217.488258 L132.007953,226 L140.253976,234.511742 C141.248675,235.538493 141.248675,237.203186 140.253976,238.229937 C139.259278,239.256688 137.646554,239.256688 136.651856,238.229937 L126.746024,228.004901 C126.212736,227.454429 125.96536,226.720589 126.003895,226 L126.003895,226 Z" id="Combined-Shape" fill="#8392A6"></path>
        </g>
    </g>
</svg>