<?xml version="1.0" encoding="UTF-8"?>
<svg width="16px" height="13px" viewBox="0 0 16 13" version="1.1" xmlns="http://www.w3.org/2000/svg" xmlns:xlink="http://www.w3.org/1999/xlink">
    <!-- Generator: sketchtool 57.1 (101010) - https://sketch.com -->
    <title>8107B1D1-4BEE-4073-95C1-BDB20EF4987F</title>
    <desc>Created with sketchtool.</desc>
    <g id="Page-1" stroke="none" stroke-width="1" fill="none" fill-rule="evenodd">
        <g id="For-testing" transform="translate(-1282.000000, -6549.000000)" fill="#8392A6">
            <g id="FOOTER/footer-white-Copy" transform="translate(0.000000, 6462.000000)">
                <g id="footer">
                    <g id="tw-copy" transform="translate(1269.000000, 72.000000)">
                        <path d="M28.7501685,16.4974243 C28.179669,16.7387423 27.5675314,16.9024014 26.9243676,16.9754665 C27.5810815,16.6000588 28.0837796,16.0046095 28.3220343,15.2972656 C27.7060215,15.6449173 27.0260571,15.897357 26.3015418,16.034203 C25.7213673,15.4433717 24.896125,15.0753623 23.9807931,15.0753623 C22.2247439,15.0753623 20.8009141,16.4345622 20.8009141,18.1099827 C20.8009141,18.3476015 20.8290021,18.5796836 20.8832534,18.8016111 C18.2409482,18.6749197 15.8979367,17.4664439 14.3297914,15.6301205 C14.0556731,16.0776504 13.8997323,16.5991159 13.8997323,17.1557599 C13.8997323,18.208918 14.4615191,19.1381652 15.3138871,19.6818258 C14.7927761,19.6651915 14.3026658,19.5283455 13.8735945,19.3008813 L13.8735945,19.338792 C13.8735945,20.8089435 14.9700425,22.0359154 16.4238853,22.3151682 C16.1575171,22.3835912 15.8766364,22.4215019 15.5860552,22.4215019 C15.3807261,22.4215019 15.1821594,22.4020872 14.9874677,22.3650953 C15.392326,23.5717336 16.5662759,24.449192 17.9571801,24.4732489 C16.8694447,25.2869265 15.4979159,25.7705054 14.0082349,25.7705054 C13.7515671,25.7705054 13.4987491,25.7557086 13.2498315,25.7288955 C14.6571986,26.5915814 16.3280211,27.094575 18.1237837,27.094575 C23.9730936,27.094575 27.1704232,22.4695914 27.1704232,18.4585773 L27.1597604,18.0656165 C27.7844858,17.6402576 28.324947,17.1058329 28.7501685,16.4974243 L28.7501685,16.4974243 Z" id="twitter-copy"></path>
                    </g>
                </g>
            </g>
        </g>
    </g>
</svg>