<?xml version="1.0" encoding="UTF-8"?>
<svg width="28px" height="28px" viewBox="0 0 28 28" version="1.1" xmlns="http://www.w3.org/2000/svg" xmlns:xlink="http://www.w3.org/1999/xlink">
    <!-- Generator: sketchtool 57.1 (101010) - https://sketch.com -->
    <title>781CAF11-7DC5-4551-B78D-86443177576D</title>
    <desc>Created with sketchtool.</desc>
    <g id="Page-1" stroke="none" stroke-width="1" fill="none" fill-rule="evenodd">
        <g id="UI-for-testing" transform="translate(-334.000000, -260.000000)">
            <g id="gallery" transform="translate(334.000000, 260.000000)">
                <rect id="Rectangle-50" x="0" y="0" width="28" height="28"></rect>
                <path d="M1.16666667,13.7254902 L8.71568627,13.7254902 L8.71568627,4.66666667 L1.16666667,4.66666667 L1.16666667,13.7254902 L1.16666667,13.7254902 Z M1.16666667,24.2941176 L8.71568627,24.2941176 L8.71568627,15.2352941 L1.16666667,15.2352941 L1.16666667,24.2941176 L1.16666667,24.2941176 Z M10.2254902,24.2941176 L17.7745098,24.2941176 L17.7745098,15.2352941 L10.2254902,15.2352941 L10.2254902,24.2941176 L10.2254902,24.2941176 Z M19.2843137,24.2941176 L26.8333333,24.2941176 L26.8333333,15.2352941 L19.2843137,15.2352941 L19.2843137,24.2941176 L19.2843137,24.2941176 Z M10.2254902,13.7254902 L17.7745098,13.7254902 L17.7745098,4.66666667 L10.2254902,4.66666667 L10.2254902,13.7254902 L10.2254902,13.7254902 Z M19.2843137,4.66666667 L19.2843137,13.7254902 L26.8333333,13.7254902 L26.8333333,4.66666667 L19.2843137,4.66666667 L19.2843137,4.66666667 Z" id="Shape" fill="#08A5F1"></path>
            </g>
        </g>
    </g>
</svg>