<?xml version="1.0" encoding="UTF-8"?>
<svg width="24px" height="24px" viewBox="0 0 24 24" version="1.1" xmlns="http://www.w3.org/2000/svg" xmlns:xlink="http://www.w3.org/1999/xlink">
    <!-- Generator: sketchtool 57.1 (101010) - https://sketch.com -->
    <title>A962E660-603E-4575-A75C-6E7AC0716320@1x</title>
    <desc>Created with sketchtool.</desc>
    <g id="Page-1" stroke="none" stroke-width="1" fill="none" fill-rule="evenodd">
        <g id="UI-for-testing" transform="translate(-363.000000, -215.000000)">
            <polygon id="Shape" points="363 215 387 215 387 239 363 239"></polygon>
            <path d="M382,218 L368,218 C366.89,218 366,218.9 366,220 L366,234 C366,235.1 366.89,236 368,236 L382,236 C383.11,236 384,235.1 384,234 L384,220 C384,218.9 383.11,218 382,218 Z M372.292893,231.292893 L368.705,227.705 C368.315639,227.315639 368.315639,226.684361 368.705,226.295 C369.09452,225.90548 369.72592,225.90504 370.115983,226.294016 L373,229.17 L379.882496,222.287504 C380.271861,221.898139 380.903148,221.898139 381.292513,222.287504 L381.295,222.29 L381.297882,222.292902 C381.686052,222.683825 381.684936,223.315064 381.295387,223.704613 L373.707107,231.292893 C373.316582,231.683418 372.683418,231.683418 372.292893,231.292893 Z" id="Shape" fill="#1FB6FF" fill-rule="nonzero"></path>
        </g>
    </g>
</svg>